 <svg id="trend-chart" width="660" height="400" title="Stack Overflow Trends Chart" version="1.1" xmlns="http://www.w3.org/2000/svg"><g></g><g class="chart-area" transform="translate(100, 20)"><g transform="translate(0,300)" fill="none" font-size="10" font-family="sans-serif" text-anchor="middle"><path class="domain" stroke="#000" d="M0.5,6V0.5H410.5V6"></path><g class="tick" opacity="1" transform="translate(19.27121723996724,0)"><line stroke="#000" y2="6" x1="0.5" x2="0.5"></line><text fill="#000" y="9" x="0.5" dy="0.71em" style="font-size: 12px;">2009</text></g><g class="tick" opacity="1" transform="translate(65.23251945126945,0)"><line stroke="#000" y2="6" x1="0.5" x2="0.5"></line><text fill="#000" y="9" x="0.5" dy="0.71em" style="font-size: 12px;">2010</text></g><g class="tick" opacity="1" transform="translate(111.19382166257166,0)"><line stroke="#000" y2="6" x1="0.5" x2="0.5"></line><text fill="#000" y="9" x="0.5" dy="0.71em" style="font-size: 12px;">2011</text></g><g class="tick" opacity="1" transform="translate(157.15512387387386,0)"><line stroke="#000" y2="6" x1="0.5" x2="0.5"></line><text fill="#000" y="9" x="0.5" dy="0.71em" style="font-size: 12px;">2012</text></g><g class="tick" opacity="1" transform="translate(203.24234746109747,0)"><line stroke="#000" y2="6" x1="0.5" x2="0.5"></line><text fill="#000" y="9" x="0.5" dy="0.71em" style="font-size: 12px;">2013</text></g><g class="tick" opacity="1" transform="translate(249.20364967239968,0)"><line stroke="#000" y2="6" x1="0.5" x2="0.5"></line><text fill="#000" y="9" x="0.5" dy="0.71em" style="font-size: 12px;">2014</text></g><g class="tick" opacity="1" transform="translate(295.16495188370186,0)"><line stroke="#000" y2="6" x1="0.5" x2="0.5"></line><text fill="#000" y="9" x="0.5" dy="0.71em" style="font-size: 12px;">2015</text></g><g class="tick" opacity="1" transform="translate(341.1262540950041,0)"><line stroke="#000" y2="6" x1="0.5" x2="0.5"></line><text fill="#000" y="9" x="0.5" dy="0.71em" style="font-size: 12px;">2016</text></g><g class="tick" opacity="1" transform="translate(387.2134776822277,0)"><line stroke="#000" y2="6" x1="0.5" x2="0.5"></line><text fill="#000" y="9" x="0.5" dy="0.71em" style="font-size: 12px;">2017</text></g></g><g class="grid-lines" transform="translate(0,300)" fill="none" font-size="10" font-family="sans-serif" text-anchor="middle"><path class="domain" stroke="#000" d="M0.5,-300V0.5H410.5V-300"></path><g class="tick" opacity="1" transform="translate(19.27121723996724,0)"><line stroke="#000" y2="-300" x1="0.5" x2="0.5" style="stroke: #ccc; fill: none;"></line></g><g class="tick" opacity="1" transform="translate(65.23251945126945,0)"><line stroke="#000" y2="-300" x1="0.5" x2="0.5" style="stroke: #ccc; fill: none;"></line></g><g class="tick" opacity="1" transform="translate(111.19382166257166,0)"><line stroke="#000" y2="-300" x1="0.5" x2="0.5" style="stroke: #ccc; fill: none;"></line></g><g class="tick" opacity="1" transform="translate(157.15512387387386,0)"><line stroke="#000" y2="-300" x1="0.5" x2="0.5" style="stroke: #ccc; fill: none;"></line></g><g class="tick" opacity="1" transform="translate(203.24234746109747,0)"><line stroke="#000" y2="-300" x1="0.5" x2="0.5" style="stroke: #ccc; fill: none;"></line></g><g class="tick" opacity="1" transform="translate(249.20364967239968,0)"><line stroke="#000" y2="-300" x1="0.5" x2="0.5" style="stroke: #ccc; fill: none;"></line></g><g class="tick" opacity="1" transform="translate(295.16495188370186,0)"><line stroke="#000" y2="-300" x1="0.5" x2="0.5" style="stroke: #ccc; fill: none;"></line></g><g class="tick" opacity="1" transform="translate(341.1262540950041,0)"><line stroke="#000" y2="-300" x1="0.5" x2="0.5" style="stroke: #ccc; fill: none;"></line></g><g class="tick" opacity="1" transform="translate(387.2134776822277,0)"><line stroke="#000" y2="-300" x1="0.5" x2="0.5" style="stroke: #ccc; fill: none;"></line></g></g><text x="205" y="360" class="axis-label x-axis-label" style="text-anchor: middle; font-weight: bold;">Year</text><g fill="none" font-size="10" font-family="sans-serif" text-anchor="end"><path class="domain" stroke="#000" d="M-6,300.5H0.5V0.5H-6"></path><g class="tick" opacity="1" transform="translate(0,300)"><line stroke="#000" x2="-6" y1="0.5" y2="0.5"></line><text fill="#000" x="-9" y="0.5" dy="0.32em" style="font-size: 12px;">0.00%</text></g><g class="tick" opacity="1" transform="translate(0,262.5)"><line stroke="#000" x2="-6" y1="0.5" y2="0.5"></line><text fill="#000" x="-9" y="0.5" dy="0.32em" style="font-size: 12px;">1.00%</text></g><g class="tick" opacity="1" transform="translate(0,225)"><line stroke="#000" x2="-6" y1="0.5" y2="0.5"></line><text fill="#000" x="-9" y="0.5" dy="0.32em" style="font-size: 12px;">2.00%</text></g><g class="tick" opacity="1" transform="translate(0,187.5)"><line stroke="#000" x2="-6" y1="0.5" y2="0.5"></line><text fill="#000" x="-9" y="0.5" dy="0.32em" style="font-size: 12px;">3.00%</text></g><g class="tick" opacity="1" transform="translate(0,150)"><line stroke="#000" x2="-6" y1="0.5" y2="0.5"></line><text fill="#000" x="-9" y="0.5" dy="0.32em" style="font-size: 12px;">4.00%</text></g><g class="tick" opacity="1" transform="translate(0,112.5)"><line stroke="#000" x2="-6" y1="0.5" y2="0.5"></line><text fill="#000" x="-9" y="0.5" dy="0.32em" style="font-size: 12px;">5.00%</text></g><g class="tick" opacity="1" transform="translate(0,75)"><line stroke="#000" x2="-6" y1="0.5" y2="0.5"></line><text fill="#000" x="-9" y="0.5" dy="0.32em" style="font-size: 12px;">6.00%</text></g><g class="tick" opacity="1" transform="translate(0,37.49999999999994)"><line stroke="#000" x2="-6" y1="0.5" y2="0.5"></line><text fill="#000" x="-9" y="0.5" dy="0.32em" style="font-size: 12px;">7.00%</text></g><g class="tick" opacity="1" transform="translate(0,0)"><line stroke="#000" x2="-6" y1="0.5" y2="0.5"></line><text fill="#000" x="-9" y="0.5" dy="0.32em" style="font-size: 12px;">8.00%</text></g></g><g class="grid-lines" fill="none" font-size="10" font-family="sans-serif" text-anchor="end"><path class="domain" stroke="#000" d="M410,300.5H0.5V0.5H410"></path><g class="tick" opacity="1" transform="translate(0,300)"><line stroke="#000" x2="410" y1="0.5" y2="0.5" style="stroke: #ccc; fill: none;"></line></g><g class="tick" opacity="1" transform="translate(0,262.5)"><line stroke="#000" x2="410" y1="0.5" y2="0.5" style="stroke: #ccc; fill: none;"></line></g><g class="tick" opacity="1" transform="translate(0,225)"><line stroke="#000" x2="410" y1="0.5" y2="0.5" style="stroke: #ccc; fill: none;"></line></g><g class="tick" opacity="1" transform="translate(0,187.5)"><line stroke="#000" x2="410" y1="0.5" y2="0.5" style="stroke: #ccc; fill: none;"></line></g><g class="tick" opacity="1" transform="translate(0,150)"><line stroke="#000" x2="410" y1="0.5" y2="0.5" style="stroke: #ccc; fill: none;"></line></g><g class="tick" opacity="1" transform="translate(0,112.5)"><line stroke="#000" x2="410" y1="0.5" y2="0.5" style="stroke: #ccc; fill: none;"></line></g><g class="tick" opacity="1" transform="translate(0,75)"><line stroke="#000" x2="410" y1="0.5" y2="0.5" style="stroke: #ccc; fill: none;"></line></g><g class="tick" opacity="1" transform="translate(0,37.49999999999994)"><line stroke="#000" x2="410" y1="0.5" y2="0.5" style="stroke: #ccc; fill: none;"></line></g><g class="tick" opacity="1" transform="translate(0,0)"><line stroke="#000" x2="410" y1="0.5" y2="0.5" style="stroke: #ccc; fill: none;"></line></g></g><g class="lines"><path class="line" d="M3.9035626535626538,300L7.681203931203931,300L11.584766584766585,300L15.367654586404585,300L19.27121723996724,300L23.174779893529895,300L26.70057841932842,300L30.598894348894348,300L34.37653562653563,300L38.28009828009828,300L42.05773955773956,300L45.96130221130221,300L49.86486486486487,300L53.64250614250615,300L57.546068796068795,300L61.328956797706795,300L65.23251945126945,300L69.1360821048321,300L72.66188063063062,300L76.56019656019656,300L80.33783783783784,300L84.2414004914005,300L88.01904176904176,300L91.92260442260442,300L95.82616707616708,300L99.60380835380836,300L103.50737100737102,300L107.29025900900902,300L111.19382166257166,300L115.09738431613431,300L118.62318284193283,300L122.52149877149877,300L126.29914004914005,300L130.20270270270268,300L133.98034398034397,300L137.88390663390663,300L141.7874692874693,300L145.5651105651106,300L149.46867321867322,300L153.25156122031123,300L157.15512387387386,300L161.05868652743652,300L164.71040642915642,300L168.60872235872236,300L172.38636363636365,300L176.28992628992629,300L180.06756756756758,300L183.9711302211302,300L187.87469287469287,300L191.65233415233416,300L195.5558968058968,300L199.3387848075348,300L203.24234746109747,300L207.14591011466013,300L210.67170864045866,300L214.5700245700246,300L218.34766584766584,300L222.25122850122852,300L226.02886977886976,300L229.93243243243245,300L233.8359950859951,300L237.61363636363637,300L241.51719901719903,300L245.30008701883702,300L249.20364967239968,300L253.10721232596234,300L256.63301085176084,299.982375L260.5313267813268,300L264.3089680589681,299.917125L268.21253071253074,300L271.99017199017203,299.938125L275.89373464373466,300L279.7972972972973,299.956125L283.5749385749386,299.958L287.4785012285012,299.934375L291.26138923013923,299.9295L295.16495188370186,299.911875L299.06851453726455,299.97825L302.59431306306305,299.961375L306.492628992629,299.903625L310.27027027027026,299.782875L314.17383292383295,299.277375L317.95147420147424,299.173125L321.8550368550369,299.149875L325.7585995085995,298.947375L329.5362407862408,299.25225L333.4398034398034,298.66125L337.22269144144144,298.255875L341.1262540950041,297.409125L345.02981674856676,297.68475L348.68153665028666,297.747L352.57985257985257,296.574L356.35749385749386,297.082125L360.2610565110565,297.042375L364.0386977886978,296.709375L367.9422604422604,295.727625L371.8458230958231,295.304625L375.62346437346434,294.361875L379.52702702702703,293.10975L383.30991502866505,291.943875L387.2134776822277,290.875125L391.1170403357903,291.214125L394.64283886158887,288.7065L398.5411547911548,288.909L402.3187960687961,287.15625L406.2223587223587,286.3785L410,285.882" data-legend="vue.js" style="stroke: rgb(31, 119, 180); fill: none;"></path><path class="line" d="M3.9035626535626538,300L7.681203931203931,300L11.584766584766585,300L15.367654586404585,300L19.27121723996724,300L23.174779893529895,300L26.70057841932842,300L30.598894348894348,300L34.37653562653563,300L38.28009828009828,300L42.05773955773956,300L45.96130221130221,300L49.86486486486487,300L53.64250614250615,300L57.546068796068795,300L61.328956797706795,300L65.23251945126945,300L69.1360821048321,300L72.66188063063062,300L76.56019656019656,300L80.33783783783784,300L84.2414004914005,300L88.01904176904176,300L91.92260442260442,300L95.82616707616708,300L99.60380835380836,300L103.50737100737102,300L107.29025900900902,300L111.19382166257166,300L115.09738431613431,300L118.62318284193283,300L122.52149877149877,300L126.29914004914005,300L130.20270270270268,300L133.98034398034397,300L137.88390663390663,300L141.7874692874693,300L145.5651105651106,300L149.46867321867322,300L153.25156122031123,300L157.15512387387386,300L161.05868652743652,300L164.71040642915642,300L168.60872235872236,300L172.38636363636365,300L176.28992628992629,300L180.06756756756758,300L183.9711302211302,300L187.87469287469287,300L191.65233415233416,300L195.5558968058968,300L199.3387848075348,300L203.24234746109747,300L207.14591011466013,300L210.67170864045866,300L214.5700245700246,300L218.34766584766584,300L222.25122850122852,300L226.02886977886976,300L229.93243243243245,300L233.8359950859951,300L237.61363636363637,300L241.51719901719903,300L245.30008701883702,300L249.20364967239968,300L253.10721232596234,300L256.63301085176084,300L260.5313267813268,300L264.3089680589681,300L268.21253071253074,300L271.99017199017203,300L275.89373464373466,300L279.7972972972973,300L283.5749385749386,300L287.4785012285012,300L291.26138923013923,300L295.16495188370186,300L299.06851453726455,300L302.59431306306305,300L306.492628992629,300L310.27027027027026,300L314.17383292383295,300L317.95147420147424,300L321.8550368550369,300L325.7585995085995,300L329.5362407862408,300L333.4398034398034,300L337.22269144144144,300L341.1262540950041,300L345.02981674856676,299.980875L348.68153665028666,300L352.57985257985257,300L356.35749385749386,299.980875L360.2610565110565,300L364.0386977886978,299.979375L367.9422604422604,300L371.8458230958231,299.85L375.62346437346434,299.286375L379.52702702702703,298.611L383.30991502866505,296.896875L387.2134776822277,295.10775L391.1170403357903,293.58525L394.64283886158887,292.132875L398.5411547911548,292.612125L402.3187960687961,292.004625L406.2223587223587,291.48675000000003L410,290.81025" data-legend="vuejs2" style="stroke: rgb(255, 127, 14); fill: none;"></path><path class="line" d="M3.9035626535626538,300L7.681203931203931,300L11.584766584766585,300L15.367654586404585,300L19.27121723996724,300L23.174779893529895,300L26.70057841932842,300L30.598894348894348,300L34.37653562653563,300L38.28009828009828,300L42.05773955773956,300L45.96130221130221,300L49.86486486486487,300L53.64250614250615,300L57.546068796068795,300L61.328956797706795,300L65.23251945126945,300L69.1360821048321,300L72.66188063063062,300L76.56019656019656,300L80.33783783783784,300L84.2414004914005,300L88.01904176904176,300L91.92260442260442,300L95.82616707616708,300L99.60380835380836,300L103.50737100737102,300L107.29025900900902,300L111.19382166257166,300L115.09738431613431,300L118.62318284193283,300L122.52149877149877,300L126.29914004914005,300L130.20270270270268,300L133.98034398034397,300L137.88390663390663,300L141.7874692874693,300L145.5651105651106,300L149.46867321867322,300L153.25156122031123,300L157.15512387387386,300L161.05868652743652,300L164.71040642915642,300L168.60872235872236,300L172.38636363636365,300L176.28992628992629,300L180.06756756756758,300L183.9711302211302,300L187.87469287469287,300L191.65233415233416,300L195.5558968058968,300L199.3387848075348,300L203.24234746109747,300L207.14591011466013,300L210.67170864045866,300L214.5700245700246,300L218.34766584766584,300L222.25122850122852,300L226.02886977886976,300L229.93243243243245,300L233.8359950859951,300L237.61363636363637,300L241.51719901719903,300L245.30008701883702,300L249.20364967239968,300L253.10721232596234,300L256.63301085176084,300L260.5313267813268,300L264.3089680589681,299.979375L268.21253071253074,300L271.99017199017203,300L275.89373464373466,299.977875L279.7972972972973,300L283.5749385749386,300L287.4785012285012,299.956125L291.26138923013923,300L295.16495188370186,299.97825L299.06851453726455,299.97825L302.59431306306305,299.59425L306.492628992629,299.74875L310.27027027027026,299.16975L314.17383292383295,298.84725L317.95147420147424,298.778625L321.8550368550369,298.623375L325.7585995085995,298.431375L329.5362407862408,297.618375L333.4398034398034,295.4475L337.22269144144144,290.6625L341.1262540950041,281.497875L345.02981674856676,279.04425L348.68153665028666,274.83225L352.57985257985257,271.53075L356.35749385749386,263.42025L360.2610565110565,256.270875L364.0386977886978,251.113875L367.9422604422604,246.96675L371.8458230958231,240.837375L375.62346437346434,232.43025L379.52702702702703,233.83724999999998L383.30991502866505,228.587625L387.2134776822277,227.05312500000002L391.1170403357903,218.886375L394.64283886158887,220.05675000000002L398.5411547911548,217.89412499999997L402.3187960687961,216.11475000000002L406.2223587223587,208.74599999999998L410,204.235125" data-legend="angular" style="stroke: rgb(44, 160, 44); fill: none;"></path><path class="line" d="M3.9035626535626538,300L7.681203931203931,300L11.584766584766585,300L15.367654586404585,300L19.27121723996724,300L23.174779893529895,300L26.70057841932842,300L30.598894348894348,300L34.37653562653563,300L38.28009828009828,300L42.05773955773956,300L45.96130221130221,300L49.86486486486487,300L53.64250614250615,299.898L57.546068796068795,300L61.328956797706795,300L65.23251945126945,300L69.1360821048321,300L72.66188063063062,300L76.56019656019656,300L80.33783783783784,300L84.2414004914005,300L88.01904176904176,300L91.92260442260442,300L95.82616707616708,300L99.60380835380836,300L103.50737100737102,299.947125L107.29025900900902,300L111.19382166257166,300L115.09738431613431,300L118.62318284193283,299.963625L122.52149877149877,300L126.29914004914005,299.963625L130.20270270270268,300L133.98034398034397,299.926875L137.88390663390663,299.965875L141.7874692874693,299.928L145.5651105651106,299.89125L149.46867321867322,299.96625L153.25156122031123,299.96475L157.15512387387386,299.9685L161.05868652743652,299.9115L164.71040642915642,299.808375L168.60872235872236,299.71575L172.38636363636365,299.073375L176.28992628992629,297.95175L180.06756756756758,297.523875L183.9711302211302,295.4535L187.87469287469287,294.79725L191.65233415233416,292.965L195.5558968058968,292.444875L199.3387848075348,290.6445L203.24234746109747,285.772125L207.14591011466013,283.76324999999997L210.67170864045866,280.474875L214.5700245700246,276.1035L218.34766584766584,272.87025L222.25122850122852,270.81L226.02886977886976,265.337625L229.93243243243245,258.375375L233.8359950859951,256.066125L237.61363636363637,255.58725L241.51719901719903,254.50275L245.30008701883702,251.888625L249.20364967239968,243.743625L253.10721232596234,240.26175L256.63301085176084,237.81975L260.5313267813268,233.091L264.3089680589681,223.82925L268.21253071253074,216.930375L271.99017199017203,209.78025L275.89373464373466,204.27937500000002L279.7972972972973,205.75537500000002L283.5749385749386,205.188375L287.4785012285012,206.745L291.26138923013923,201.238875L295.16495188370186,196.575L299.06851453726455,198.578625L302.59431306306305,196.84050000000002L306.492628992629,195.83775000000003L310.27027027027026,185.388375L314.17383292383295,182.08724999999998L317.95147420147424,175.525125L321.8550368550369,175.633125L325.7585995085995,177.18675000000002L329.5362407862408,178.981125L333.4398034398034,179.77724999999998L337.22269144144144,176.99475L341.1262540950041,171.454875L345.02981674856676,178.896375L348.68153665028666,181.02974999999998L352.57985257985257,181.373625L356.35749385749386,177.951L360.2610565110565,177.42712500000002L364.0386977886978,178.90162500000002L367.9422604422604,178.854375L371.8458230958231,185.431125L375.62346437346434,198.580875L379.52702702702703,202.16287499999999L383.30991502866505,201.09675L387.2134776822277,205.449375L391.1170403357903,214.47525L394.64283886158887,215.61525L398.5411547911548,222.20212500000002L402.3187960687961,225.67537500000003L406.2223587223587,230.739375L410,236.01412499999998" data-legend="angularjs" style="stroke: rgb(214, 39, 40); fill: none;"></path><path class="line" d="M3.9035626535626538,300L7.681203931203931,300L11.584766584766585,300L15.367654586404585,300L19.27121723996724,300L23.174779893529895,300L26.70057841932842,300L30.598894348894348,300L34.37653562653563,300L38.28009828009828,300L42.05773955773956,300L45.96130221130221,300L49.86486486486487,300L53.64250614250615,300L57.546068796068795,300L61.328956797706795,300L65.23251945126945,300L69.1360821048321,300L72.66188063063062,300L76.56019656019656,300L80.33783783783784,300L84.2414004914005,300L88.01904176904176,300L91.92260442260442,300L95.82616707616708,300L99.60380835380836,300L103.50737100737102,300L107.29025900900902,300L111.19382166257166,300L115.09738431613431,300L118.62318284193283,300L122.52149877149877,300L126.29914004914005,300L130.20270270270268,300L133.98034398034397,300L137.88390663390663,300L141.7874692874693,300L145.5651105651106,300L149.46867321867322,300L153.25156122031123,300L157.15512387387386,300L161.05868652743652,300L164.71040642915642,300L168.60872235872236,300L172.38636363636365,300L176.28992628992629,300L180.06756756756758,300L183.9711302211302,300L187.87469287469287,300L191.65233415233416,300L195.5558968058968,300L199.3387848075348,300L203.24234746109747,300L207.14591011466013,300L210.67170864045866,300L214.5700245700246,300L218.34766584766584,299.97825L222.25122850122852,299.953875L226.02886977886976,299.95875L229.93243243243245,299.978625L233.8359950859951,299.8005L237.61363636363637,299.900625L241.51719901719903,299.8545L245.30008701883702,299.53425L249.20364967239968,299.087625L253.10721232596234,299.08275L256.63301085176084,299.2065L260.5313267813268,299.378625L264.3089680589681,298.67175L268.21253071253074,298.470375L271.99017199017203,298.347L275.89373464373466,298.320375L279.7972972972973,297.9045L283.5749385749386,297.183L287.4785012285012,296.52825L291.26138923013923,296.014875L295.16495188370186,295.60725L299.06851453726455,292.783875L302.59431306306305,292.675875L306.492628992629,291.23775L310.27027027027026,291.3405L314.17383292383295,289.703625L317.95147420147424,287.91525L321.8550368550369,287.770125L325.7585995085995,284.5815L329.5362407862408,283.583625L333.4398034398034,280.40925L337.22269144144144,278.517375L341.1262540950041,276.619125L345.02981674856676,277.565625L348.68153665028666,273.41475L352.57985257985257,272.16375L356.35749385749386,270.16425L360.2610565110565,266.8905L364.0386977886978,262.310625L367.9422604422604,259.899375L371.8458230958231,261.77925L375.62346437346434,262.05037500000003L379.52702702702703,260.75925L383.30991502866505,255.799875L387.2134776822277,254.31900000000002L391.1170403357903,254.12212499999998L394.64283886158887,254.603625L398.5411547911548,248.01637499999998L402.3187960687961,243.02775L406.2223587223587,239.19975L410,235.99725" data-legend="reactjs" style="stroke: rgb(148, 103, 189); fill: none;"></path><path class="line" d="M3.9035626535626538,264.3645L7.681203931203931,234.92475000000002L11.584766584766585,224.16675L15.367654586404585,221.139375L19.27121723996724,211.024125L23.174779893529895,194.2365L26.70057841932842,196.20974999999999L30.598894348894348,178.106625L34.37653562653563,163.251L38.28009828009828,147.376125L42.05773955773956,141.33262499999998L45.96130221130221,115.848375L49.86486486486487,115.24837500000001L53.64250614250615,115.46362500000001L57.546068796068795,123.489L61.328956797706795,112.77937500000002L65.23251945126945,106.50562500000001L69.1360821048321,105.865125L72.66188063063062,92.96400000000003L76.56019656019656,94.730625L80.33783783783784,100.741875L84.2414004914005,94.39874999999998L88.01904176904176,84.14325000000002L91.92260442260442,78.437625L95.82616707616708,76.66574999999997L99.60380835380836,79.58587499999999L103.50737100737102,82.1385L107.29025900900902,72.66787499999998L111.19382166257166,71.704125L115.09738431613431,73.42912499999997L118.62318284193283,69.21787499999999L122.52149877149877,58.772999999999996L126.29914004914005,55.40474999999998L130.20270270270268,52.52624999999995L133.98034398034397,31.853250000000003L137.88390663390663,31.269750000000045L141.7874692874693,39.90825000000001L145.5651105651106,37.85400000000004L149.46867321867322,44.405249999999995L153.25156122031123,34.227750000000015L157.15512387387386,37.29599999999999L161.05868652743652,33.735000000000014L164.71040642915642,43.99799999999999L168.60872235872236,42.59812500000004L172.38636363636365,31.296374999999955L176.28992628992629,32.28525000000002L180.06756756756758,35.06512500000002L183.9711302211302,28.351875000000007L187.87469287469287,41.07037500000001L191.65233415233416,46.58962500000001L195.5558968058968,46.19587500000003L199.3387848075348,43.685249999999996L203.24234746109747,39.48900000000003L207.14591011466013,40.187250000000006L210.67170864045866,37.667625000000044L214.5700245700246,37.86037500000003L218.34766584766584,38.438625L222.25122850122852,31.509000000000015L226.02886977886976,33.106875L229.93243243243245,22.062000000000012L233.8359950859951,10.492875000000026L237.61363636363637,23.44912499999998L241.51719901719903,39.46650000000005L245.30008701883702,29.860500000000002L249.20364967239968,29.786250000000052L253.10721232596234,32.57249999999999L256.63301085176084,44.241749999999996L260.5313267813268,41.63137500000005L264.3089680589681,42.285000000000025L268.21253071253074,43.748249999999985L271.99017199017203,48.26850000000002L275.89373464373466,46.566L279.7972972972973,57.880499999999984L283.5749385749386,69.00787499999998L287.4785012285012,73.41075000000001L291.26138923013923,77.78775000000002L295.16495188370186,78.71212499999999L299.06851453726455,79.650375L302.59431306306305,81.738L306.492628992629,84.18975000000003L310.27027027027026,73.78200000000001L314.17383292383295,73.68975L317.95147420147424,78.94087499999998L321.8550368550369,76.05075L325.7585995085995,80.153625L329.5362407862408,89.358375L333.4398034398034,96.94387499999999L337.22269144144144,94.16850000000002L341.1262540950041,92.607L345.02981674856676,98.77012500000001L348.68153665028666,109.34174999999999L352.57985257985257,112.071L356.35749385749386,106.762125L360.2610565110565,117.301875L364.0386977886978,104.41275000000002L367.9422604422604,110.43562500000002L371.8458230958231,119.69475L375.62346437346434,128.997375L379.52702702702703,127.44637500000002L383.30991502866505,118.96199999999999L387.2134776822277,127.060125L391.1170403357903,126.26624999999999L394.64283886158887,131.912625L398.5411547911548,136.69575L402.3187960687961,136.295625L406.2223587223587,137.05537500000003L410,143.77425000000002" data-legend="jquery" style="stroke: rgb(140, 86, 75); fill: none;"></path></g></g><g transform="translate(20, 150)"><text transform="rotate(-90)" x="-50" y="0" dy="1em" class="axis-label y-axis-label" style="text-anchor: middle; font-weight: bold;">% of Stack Overflow questions that month</text></g><g class="legend" transform="translate(530, 30)" style="font-size: 12px;"><text class="legend-title" style="font-weight: bold;">Tag</text><g class="legend-items" transform="translate(0,20)"><text y="0em" x="1em">jquery</text><text y="1em" x="1em">angularjs</text><text y="2em" x="1em">angular</text><text y="3em" x="1em">reactjs</text><text y="4em" x="1em">vue.js</text><text y="5em" x="1em">vuejs2</text><circle cy="-0.25em" cx="0" r="0.4em" style="fill: rgb(140, 86, 75);"></circle><circle cy="0.75em" cx="0" r="0.4em" style="fill: rgb(214, 39, 40);"></circle><circle cy="1.75em" cx="0" r="0.4em" style="fill: rgb(44, 160, 44);"></circle><circle cy="2.75em" cx="0" r="0.4em" style="fill: rgb(148, 103, 189);"></circle><circle cy="3.75em" cx="0" r="0.4em" style="fill: rgb(31, 119, 180);"></circle><circle cy="4.75em" cx="0" r="0.4em" style="fill: rgb(255, 127, 14);"></circle></g><rect class="legend-box"></rect></g></svg>